<svg width="200" height="52" viewBox="0 0 200 52" fill="none" xmlns="http://www.w3.org/2000/svg">
<g clip-path="url(#clip0_10_168)">
<path d="M91.8757 20.0027C93.6566 21.5496 94.5926 23.844 94.5926 26.6551V33.0248C94.5926 35.8359 93.6566 38.1304 91.8757 39.6772C90.1435 41.1755 87.7062 41.9717 84.6155 41.9717C81.5249 41.9717 79.042 41.1755 77.3067 39.6772C75.5259 38.1304 74.5898 35.8359 74.5898 33.0248V26.6551C74.5898 23.844 75.5259 21.5496 77.3067 20.0027C79.0389 18.5045 81.5218 17.7083 84.6155 17.7083C87.7092 17.7083 90.1435 18.5045 91.8757 20.0027ZM79.276 22.2516C78.1516 23.2362 77.5893 24.7344 77.5893 26.6551V33.0248C77.5893 34.9455 78.1516 36.4437 79.276 37.4284C80.446 38.4586 82.2724 38.9752 84.6155 38.9752C86.9586 38.9752 88.7364 38.4586 89.9095 37.4284C91.0339 36.4437 91.5961 34.9455 91.5961 33.0248V26.6551C91.5961 24.7344 91.0339 23.2362 89.9095 22.2516C88.7395 21.2213 86.9586 20.7047 84.6155 20.7047C82.2724 20.7047 80.446 21.2213 79.276 22.2516Z" fill="#344054"/>
<path d="M117.501 20.0027C119.281 21.5496 120.217 23.844 120.217 26.6551V41.9717H117.221V26.6551C117.221 24.7344 116.659 23.2362 115.534 22.2516C114.364 21.2213 112.583 20.7047 110.24 20.7047C107.897 20.7047 106.071 21.2213 104.901 22.2516C103.776 23.2362 103.214 24.7344 103.214 26.6551V41.9717H100.218V17.7083H103.214V19.7687C104.946 18.4103 107.29 17.7083 110.24 17.7083C113.191 17.7083 115.768 18.5045 117.501 20.0027Z" fill="#344054"/>
<path d="M138.257 17.7083V20.7047H131.276V33.0248C131.276 34.9455 131.839 36.4437 132.963 37.4284C134.133 38.4586 135.914 38.9752 138.257 38.9752V41.9717C135.166 41.9717 132.729 41.1755 130.948 39.6772C129.216 38.1304 128.28 35.8359 128.28 33.0248V20.7047H124.439V17.7083H128.28V9.18384H131.276V17.7083H138.257Z" fill="#344054"/>
<path d="M146.875 19.7687C148.608 18.4103 150.951 17.7083 153.902 17.7083C156.852 17.7083 159.429 18.5045 161.162 20.0027C162.943 21.5496 163.879 23.844 163.879 26.6551V41.9717H160.882V26.6551C160.882 24.7344 160.32 23.2362 159.196 22.2516C158.025 21.2213 156.245 20.7047 153.902 20.7047C151.558 20.7047 149.732 21.2213 148.562 22.2516C147.438 23.2362 146.875 24.7344 146.875 26.6551V41.9717H143.879V9.18384H146.875V19.7687Z" fill="#344054"/>
<path d="M174.376 11.1501C174.376 12.2745 173.531 13.1163 172.41 13.1163C171.288 13.1163 170.443 12.2745 170.443 11.1501C170.443 10.0256 171.285 9.18384 172.41 9.18384C173.534 9.18384 174.376 10.0256 174.376 11.1501ZM170.908 41.9717V17.7083H173.905V41.9717H170.908Z" fill="#344054"/>
<path d="M190.586 17.7083C192.834 17.7083 194.801 18.1307 196.348 18.9725C198.034 19.8629 199.204 21.1758 199.906 22.908L197.141 24.0324C196.673 22.9566 195.971 22.1574 194.94 21.5982C193.816 21.036 192.363 20.7078 190.586 20.7078H190.023C187.586 20.7078 185.714 21.0815 184.495 21.8778C183.465 22.4856 182.997 23.3304 182.997 24.5004C182.997 25.6704 183.465 26.5609 184.495 27.1717C185.714 27.9679 187.586 28.3417 190.023 28.3417C193.02 28.3417 195.408 28.9039 197.098 29.9342C199.019 31.1528 200.003 32.9306 200.003 35.1339C200.003 37.3372 199.019 39.1636 197.098 40.3792C195.412 41.4095 193.023 41.9717 190.023 41.9717H189.461C187.167 41.9717 185.197 41.5493 183.654 40.7074C181.967 39.817 180.797 38.5042 180.095 36.7719L182.906 35.6475C183.328 36.7264 184.03 37.5226 185.061 38.0848C186.185 38.647 187.683 38.9752 189.464 38.9752H190.026C192.415 38.9752 194.29 38.6014 195.509 37.8052C196.539 37.1974 197.007 36.3526 197.007 35.137C197.007 33.9214 196.539 33.1221 195.509 32.5143C194.29 31.7181 192.415 31.3443 190.026 31.3443C186.981 31.3443 184.641 30.7821 182.906 29.7518C180.985 28.5332 180.001 26.7554 180.001 24.5065C180.001 22.2576 180.985 20.5254 182.906 19.3068C184.638 18.2765 186.981 17.7143 190.026 17.7143H190.589L190.586 17.7083Z" fill="#344054"/>
<path d="M25.9774 51.9548C40.3244 51.9548 51.9548 40.3244 51.9548 25.9774C51.9548 11.6305 40.3244 0 25.9774 0C11.6305 0 0 11.6305 0 25.9774C0 40.3244 11.6305 51.9548 25.9774 51.9548Z" fill="#00D1FF"/>
<path d="M65.2753 15.3318C65.254 15.1494 65.2297 14.9641 65.2023 14.7817C65.1203 14.2286 65.0078 13.6786 64.865 13.1376C64.6766 12.4113 64.4335 11.6941 64.1447 11.0073C63.6676 9.87069 63.0629 8.80096 62.3487 7.82544C61.6983 6.93197 60.9507 6.10536 60.1241 5.36688C59.334 4.65879 58.4709 4.02972 57.5592 3.49789L57.3708 3.39153C56.5138 2.90225 55.6051 2.49502 54.6722 2.17896C53.645 1.8234 52.5601 1.57116 51.4447 1.43745C50.2261 1.29461 48.9953 1.29461 47.7858 1.43745C47.0473 1.52254 46.3058 1.65929 45.5825 1.85075C44.8592 2.03917 44.1451 2.28229 43.4643 2.56796C43.2729 2.64697 43.0844 2.73206 42.8991 2.81716C40.1032 4.11481 37.7723 6.18437 36.1312 8.83439C36.1312 8.83439 36.1312 8.83439 36.1312 8.83743L35.958 9.13525L35.7604 9.47258L35.7544 9.48473C34.1498 12.387 33.4994 15.657 33.8823 18.936C33.9644 19.6715 34.1042 20.41 34.2926 21.1363C34.481 21.8596 34.7241 22.5737 35.0098 23.2575C35.4778 24.3789 36.0795 25.4517 36.8028 26.4454C37.4532 27.3389 38.2008 28.1655 39.0274 28.8979C39.7598 29.5574 40.559 30.1469 41.4039 30.6575L41.5953 30.773C42.507 31.3048 43.4765 31.7515 44.4793 32.0949C45.5278 32.4535 46.6127 32.6997 47.7098 32.8304C48.3237 32.9033 48.9436 32.9398 49.5666 32.9398C50.1896 32.9398 50.767 32.9064 51.3657 32.8365C52.1042 32.7514 52.8457 32.6116 53.5751 32.4232C54.2984 32.2347 55.0095 31.9947 55.6902 31.7059C55.8817 31.6269 56.0701 31.5418 56.2555 31.4567C59.0514 30.1591 61.3823 28.0926 63.0173 25.4456V25.4395C63.0173 25.4395 63.0234 25.4395 63.0234 25.4365L63.4002 24.7922C65.0048 21.89 65.6551 18.62 65.2722 15.3409L65.2753 15.3318ZM61.3002 8.17188L47.5001 31.7363C46.8011 31.636 46.1082 31.4871 45.4306 31.2896L59.8962 6.58552C60.4007 7.07784 60.8687 7.60967 61.3002 8.17188ZM57.4772 4.67095C58.0455 5.03259 58.5925 5.4307 59.1091 5.86832L44.4216 30.9492C43.7895 30.7122 43.1726 30.4326 42.58 30.1135L57.4772 4.67095ZM50.5209 2.40081L37.1948 25.1538C36.7663 24.4913 36.3956 23.7954 36.0826 23.0782L48.1626 2.4464C48.9436 2.36738 49.7338 2.35219 50.5209 2.40081ZM34.8214 17.1187C34.8214 14.6328 35.4444 12.1955 36.6661 9.98921L37.0307 9.36925C38.3588 7.22675 40.1761 5.49756 42.3399 4.285L34.8244 17.1187H34.8214ZM34.946 18.9756L44.0265 3.4675C44.6161 3.22742 45.2269 3.02077 45.8499 2.85666C46.1781 2.77157 46.5094 2.69863 46.8437 2.63482L35.5963 21.8413C35.4869 21.5192 35.3897 21.194 35.3046 20.8658C35.1405 20.2428 35.025 19.6077 34.946 18.9756ZM37.8573 26.0899L51.6605 2.52237C52.3656 2.6257 53.0554 2.77461 53.727 2.97215L39.2614 27.6762C38.7539 27.1839 38.2858 26.6521 37.8573 26.0929V26.0899ZM40.0515 28.3874L54.736 3.31251C55.3681 3.54652 55.985 3.82611 56.5776 4.14824L41.6804 29.5878C41.1121 29.2292 40.5681 28.828 40.0515 28.3904V28.3874ZM48.6428 31.8549L61.9658 9.10182C62.3912 9.75825 62.762 10.4542 63.0811 11.1775L50.998 31.8123C50.2109 31.8883 49.4238 31.9065 48.6428 31.8549ZM53.3137 31.402C52.9825 31.4871 52.6482 31.5631 52.3139 31.6269L63.5643 12.4143C63.6737 12.7395 63.7709 13.0647 63.8591 13.3959C64.0201 14.0159 64.1387 14.648 64.2177 15.2801L55.1341 30.7882C54.5445 31.0282 53.9337 31.2349 53.3137 31.399V31.402ZM62.4976 24.2665L62.1329 24.8895C62.0296 25.0566 61.9141 25.2177 61.8017 25.3818C61.6953 25.5368 61.5981 25.6978 61.4856 25.8498C61.358 26.023 61.2182 26.1871 61.0845 26.3573C60.9811 26.488 60.8809 26.6247 60.7745 26.7493C60.6256 26.9226 60.4676 27.0836 60.3126 27.2477C60.2062 27.3602 60.1089 27.4787 59.9995 27.5851C59.8324 27.7522 59.6561 27.9072 59.4799 28.0652C59.3735 28.1625 59.2732 28.2628 59.1638 28.357C58.9906 28.5059 58.8052 28.6426 58.6259 28.7824C58.5074 28.8736 58.3949 28.9739 58.2734 29.062C58.0971 29.1896 57.9148 29.3051 57.7355 29.4237C57.5987 29.5148 57.4681 29.609 57.3283 29.6941C57.1641 29.7944 56.9909 29.8825 56.8207 29.9798L64.3362 17.1461C64.3392 19.632 63.7132 22.0693 62.4946 24.2725L62.4976 24.2665Z" fill="#344054"/>
</g>
<defs>
<clipPath id="clip0_10_168">
<rect width="200" height="51.9548" fill="white"/>
</clipPath>
</defs>
</svg>
